<svg width="82" height="34" viewBox="0 0 82 34" fill="none" xmlns="http://www.w3.org/2000/svg">
<g clip-path="url(#clip0_672_1456)">
<path d="M25.5099 4.59668L8.65625 28.0865" stroke="white" stroke-width="0.503651" stroke-linecap="round" stroke-linejoin="round"/>
<path d="M29.9876 22.8644L4.1875 9.81934" stroke="white" stroke-width="0.503651" stroke-linecap="round" stroke-linejoin="round"/>
<path d="M26.073 27.6637L8.09766 5.02051" stroke="white" stroke-width="0.503651" stroke-linecap="round" stroke-linejoin="round"/>
<path d="M30.5719 11.1064L4.05469 22.6234" stroke="white" stroke-width="0.503651" stroke-linecap="round" stroke-linejoin="round"/>
<path d="M17.3093 29.8725C24.4182 29.8725 30.1811 24.1096 30.1811 17.0007C30.1811 9.89182 24.4182 4.12891 17.3093 4.12891C10.2004 4.12891 4.4375 9.89182 4.4375 17.0007C4.4375 24.1096 10.2004 29.8725 17.3093 29.8725Z" fill="white" stroke="#0057FF" stroke-width="0.503651" stroke-linecap="round" stroke-linejoin="round"/>
<path d="M24.5373 4.48145L10.082 29.5185" stroke="#0057FF" stroke-width="0.503651" stroke-linecap="round" stroke-linejoin="round"/>
<path d="M29.83 24.2278L4.79297 9.77246" stroke="#0057FF" stroke-width="0.503651" stroke-linecap="round" stroke-linejoin="round"/>
<path d="M24.5373 29.5185L10.082 4.48145" stroke="#0057FF" stroke-width="0.503651" stroke-linecap="round" stroke-linejoin="round"/>
<path d="M30.069 10.1992L4.55859 23.8013" stroke="#0057FF" stroke-width="0.503651" stroke-linecap="round" stroke-linejoin="round"/>
<path d="M18.1328 1.06507L21.675 11.5783C21.7938 11.9319 22.0713 12.2089 22.4249 12.3282L32.9381 15.8704C34.021 16.2356 34.021 17.7672 32.9381 18.1323L22.4249 21.6745C22.0713 21.7933 21.7943 22.0709 21.675 22.4244L18.1328 32.9376C17.7676 34.0205 16.236 34.0205 15.8709 32.9376L12.3287 22.4244C12.2098 22.0709 11.9323 21.7938 11.5788 21.6745L1.06604 18.1318C-0.0168064 17.7667 -0.0168064 16.235 1.06604 15.8699L11.5793 12.3277C11.9328 12.2089 12.2098 11.9313 12.3292 11.5778L15.8709 1.06507C16.236 -0.017783 17.7676 -0.017783 18.1328 1.06507Z" fill="#0057FF" stroke="#0057FF" stroke-width="0.503651" stroke-linecap="round" stroke-linejoin="round"/>
<path d="M27.9121 15.241C27.0076 13.795 24.2148 13.1886 24.2148 13.1886L24.2259 13.2501C22.2284 8.68547 18.4007 5.45203 17.0841 5.44145C15.2826 5.42685 11.6125 8.87787 9.71721 13.3442C8.84892 13.6061 7.2458 14.21 6.60112 15.2405C5.96098 16.2634 7.54547 17.7759 8.52709 18.5742C8.49888 20.065 8.76078 21.5659 9.41704 23.0083C12.2078 29.1383 14.5649 24.7565 14.5649 24.7565C16.9517 25.6359 19.5989 24.7565 19.5989 24.7565C20.7537 26.5087 22.6872 27.104 24.0657 24.488C25.0453 22.6286 25.4578 20.7661 25.4714 18.972C26.2002 18.4362 28.6867 16.479 27.9121 15.2405V15.241Z" fill="#FFD400" stroke="white" stroke-width="3.02191" stroke-linecap="round" stroke-linejoin="round"/>
<path d="M9.41242 19.1139C9.41242 19.1139 5.87225 16.6883 6.77681 15.2428C7.68137 13.7973 10.4741 13.1904 10.4741 13.1904L9.41191 19.1139H9.41242Z" fill="#FFD400" stroke="#0057FF" stroke-width="0.503651" stroke-linecap="round" stroke-linejoin="round"/>
<path d="M25.4523 19.1139C25.4523 19.1139 28.9925 16.6883 28.0879 15.2428C27.1834 13.7968 24.3906 13.1904 24.3906 13.1904L25.4528 19.1139H25.4523Z" fill="#FFD400" stroke="#0057FF" stroke-width="0.503651" stroke-linecap="round" stroke-linejoin="round"/>
<path d="M17.2628 5.44243C19.5277 5.46106 29.2316 15.0234 24.2444 24.489C22.8659 27.105 20.9324 26.5092 19.7776 24.7575C19.7776 24.7575 17.1304 25.6368 14.7436 24.7575C14.7436 24.7575 12.3865 29.1392 9.59574 23.0093C5.99614 15.1025 14.2475 5.41775 17.2628 5.44243Z" fill="#FFD400" stroke="#0057FF" stroke-width="0.503651" stroke-linecap="round" stroke-linejoin="round"/>
<path d="M11.0977 17.918C11.0977 17.918 12.4369 19.4737 14.0601 18.5344Z" fill="#FFD400"/>
<path d="M11.0977 17.918C11.0977 17.918 12.4369 19.4737 14.0601 18.5344" stroke="#0057FF" stroke-width="0.503651" stroke-linecap="round" stroke-linejoin="round"/>
<path d="M23.0367 17.918C23.0367 17.918 21.6975 19.4737 20.0742 18.5344Z" fill="#FFD400"/>
<path d="M23.0367 17.918C23.0367 17.918 21.6975 19.4737 20.0742 18.5344" stroke="#0057FF" stroke-width="0.503651" stroke-linecap="round" stroke-linejoin="round"/>
<path d="M16.9989 20.7977C17.3155 20.7977 17.5721 20.6697 17.5721 20.5117C17.5721 20.3537 17.3155 20.2256 16.9989 20.2256C16.6824 20.2256 16.4258 20.3537 16.4258 20.5117C16.4258 20.6697 16.6824 20.7977 16.9989 20.7977Z" fill="#0057FF"/>
</g>
<path d="M51.9374 24.7491C51.3134 24.7491 50.7784 24.6632 50.3322 24.4913C49.8891 24.3225 49.5365 24.0919 49.2742 23.7996C49.012 23.5072 48.8416 23.1786 48.7633 22.8139L50.5447 22.5742C50.599 22.7129 50.6849 22.8425 50.8025 22.9631C50.92 23.0837 51.0753 23.1801 51.2682 23.2525C51.4641 23.3278 51.7023 23.3655 51.9826 23.3655C52.4016 23.3655 52.7467 23.263 53.018 23.058C53.2923 22.8561 53.4295 22.517 53.4295 22.0407V20.7702H53.3481C53.2637 20.9631 53.1371 21.1454 52.9683 21.3173C52.7995 21.4891 52.5824 21.6292 52.3172 21.7378C52.0519 21.8463 51.7354 21.9005 51.3677 21.9005C50.8462 21.9005 50.3714 21.78 49.9434 21.5388C49.5184 21.2946 49.1793 20.9224 48.926 20.422C48.6759 19.9186 48.5508 19.2826 48.5508 18.5139C48.5508 17.7272 48.6789 17.0701 48.9351 16.5425C49.1913 16.015 49.5319 15.6202 49.957 15.3579C50.385 15.0957 50.8537 14.9645 51.3631 14.9645C51.752 14.9645 52.0775 15.0309 52.3398 15.1635C52.602 15.2931 52.813 15.4559 52.9728 15.6518C53.1356 15.8447 53.2607 16.0346 53.3481 16.2215H53.4204V15.055H55.333V22.0678C55.333 22.6586 55.1883 23.153 54.899 23.5509C54.6096 23.9488 54.2087 24.2472 53.6962 24.4461C53.1868 24.6481 52.6005 24.7491 51.9374 24.7491ZM51.9781 20.4536C52.2885 20.4536 52.5508 20.3768 52.7648 20.223C52.9818 20.0663 53.1476 19.8432 53.2622 19.5539C53.3797 19.2615 53.4385 18.9118 53.4385 18.5049C53.4385 18.0979 53.3812 17.7453 53.2667 17.4468C53.1522 17.1454 52.9864 16.9118 52.7693 16.746C52.5523 16.5802 52.2885 16.4973 51.9781 16.4973C51.6616 16.4973 51.3948 16.5832 51.1778 16.7551C50.9607 16.9239 50.7964 17.159 50.6849 17.4604C50.5734 17.7618 50.5176 18.11 50.5176 18.5049C50.5176 18.9058 50.5734 19.2524 50.6849 19.5448C50.7995 19.8342 50.9637 20.0588 51.1778 20.2185C51.3948 20.3753 51.6616 20.4536 51.9781 20.4536ZM58.8462 22.1311C58.4031 22.1311 58.0082 22.0543 57.6616 21.9005C57.3149 21.7438 57.0406 21.5132 56.8387 21.2087C56.6397 20.9013 56.5403 20.5185 56.5403 20.0603C56.5403 19.6744 56.6111 19.3504 56.7528 19.0882C56.8944 18.8259 57.0874 18.6149 57.3315 18.4551C57.5757 18.2954 57.853 18.1748 58.1635 18.0934C58.477 18.012 58.8055 17.9548 59.1492 17.9216C59.5531 17.8794 59.8786 17.8402 60.1258 17.804C60.373 17.7649 60.5523 17.7076 60.6639 17.6322C60.7754 17.5569 60.8312 17.4453 60.8312 17.2976V17.2705C60.8312 16.9841 60.7407 16.7626 60.5599 16.6058C60.382 16.4491 60.1288 16.3707 59.8003 16.3707C59.4536 16.3707 59.1778 16.4476 58.9728 16.6013C58.7679 16.752 58.6322 16.9419 58.5659 17.171L56.7844 17.0263C56.8749 16.6043 57.0527 16.2396 57.318 15.9321C57.5832 15.6217 57.9254 15.3835 58.3443 15.2177C58.7664 15.0489 59.2547 14.9645 59.8093 14.9645C60.1951 14.9645 60.5644 15.0098 60.9171 15.1002C61.2728 15.1906 61.5878 15.3308 61.8621 15.5207C62.1394 15.7106 62.3579 15.9547 62.5177 16.2532C62.6775 16.5486 62.7573 16.9028 62.7573 17.3157V22H60.9306V21.0369H60.8764C60.7649 21.254 60.6156 21.4454 60.4288 21.6112C60.2419 21.7739 60.0173 21.902 59.7551 21.9955C59.4928 22.0859 59.1899 22.1311 58.8462 22.1311ZM59.3979 20.8018C59.6812 20.8018 59.9314 20.746 60.1484 20.6345C60.3655 20.52 60.5358 20.3662 60.6594 20.1733C60.7829 19.9804 60.8447 19.7619 60.8447 19.5177V18.7807C60.7845 18.8199 60.7016 18.856 60.5961 18.8892C60.4936 18.9193 60.3775 18.948 60.2479 18.9751C60.1183 18.9992 59.9887 19.0218 59.859 19.0429C59.7294 19.061 59.6119 19.0776 59.5064 19.0927C59.2803 19.1258 59.0829 19.1786 58.9141 19.2509C58.7453 19.3233 58.6141 19.4212 58.5207 19.5448C58.4272 19.6654 58.3805 19.8161 58.3805 19.997C58.3805 20.2592 58.4755 20.4597 58.6654 20.5983C58.8583 20.734 59.1025 20.8018 59.3979 20.8018ZM64.2155 22V20.8515L67.6157 16.642V16.5923H64.3331V15.055H69.9352V16.3074L66.743 20.413V20.4627H70.0528V22H64.2155ZM74.4918 22.1356C73.7774 22.1356 73.1624 21.991 72.647 21.7016C72.1346 21.4092 71.7397 20.9962 71.4624 20.4627C71.185 19.9261 71.0464 19.2916 71.0464 18.5591C71.0464 17.8447 71.185 17.2178 71.4624 16.6782C71.7397 16.1386 72.13 15.7181 72.6334 15.4167C73.1398 15.1153 73.7337 14.9645 74.4149 14.9645C74.8731 14.9645 75.2996 15.0384 75.6945 15.1861C76.0924 15.3308 76.439 15.5493 76.7344 15.8417C77.0329 16.1341 77.265 16.5018 77.4307 16.945C77.5965 17.3851 77.6794 17.9005 77.6794 18.4913V19.0203H71.815V17.8267H75.8663C75.8663 17.5493 75.806 17.3037 75.6854 17.0896C75.5649 16.8756 75.3976 16.7083 75.1836 16.5878C74.9726 16.4642 74.7269 16.4024 74.4466 16.4024C74.1542 16.4024 73.8949 16.4702 73.6689 16.6058C73.4458 16.7385 73.271 16.9178 73.1444 17.1439C73.0178 17.367 72.953 17.6156 72.9499 17.89V19.0248C72.9499 19.3685 73.0132 19.6654 73.1398 19.9156C73.2695 20.1658 73.4518 20.3587 73.6869 20.4943C73.9221 20.63 74.2009 20.6978 74.5234 20.6978C74.7374 20.6978 74.9334 20.6677 75.1112 20.6074C75.2891 20.5471 75.4413 20.4567 75.5679 20.3361C75.6945 20.2155 75.7909 20.0678 75.8573 19.893L77.6387 20.0105C77.5483 20.4386 77.3629 20.8124 77.0826 21.1319C76.8053 21.4484 76.4466 21.6956 76.0065 21.8734C75.5694 22.0482 75.0645 22.1356 74.4918 22.1356ZM80.0623 22.1176C79.7638 22.1176 79.5076 22.0121 79.2936 21.8011C79.0826 21.587 78.9771 21.3308 78.9771 21.0324C78.9771 20.737 79.0826 20.4838 79.2936 20.2728C79.5076 20.0618 79.7638 19.9563 80.0623 19.9563C80.3516 19.9563 80.6048 20.0618 80.8219 20.2728C81.0389 20.4838 81.1474 20.737 81.1474 21.0324C81.1474 21.2313 81.0962 21.4137 80.9937 21.5795C80.8942 21.7423 80.7631 21.8734 80.6003 21.9729C80.4375 22.0693 80.2582 22.1176 80.0623 22.1176Z" fill="#0057FF"/>
<defs>
<clipPath id="clip0_672_1456">
<rect width="34" height="34" fill="white"/>
</clipPath>
</defs>
</svg>
