<svg width="114" height="114" viewBox="0 0 114 114" fill="none" xmlns="http://www.w3.org/2000/svg">
<g clip-path="url(#clip0_636_1401)">
<path d="M58.0452 100.16C81.8809 100.16 101.204 80.837 101.204 57.0012C101.204 33.1655 81.8809 13.8428 58.0452 13.8428C34.2094 13.8428 14.8867 33.1655 14.8867 57.0012C14.8867 80.837 34.2094 100.16 58.0452 100.16Z" stroke="#0057FF" stroke-width="3" stroke-linecap="round" stroke-linejoin="round"/>
<path d="M93.3639 90.1906L22.7266 23.8076" stroke="#0057FF" stroke-width="3" stroke-linecap="round" stroke-linejoin="round"/>
<path d="M93.6587 24.1251L22.4327 89.8755" stroke="#0057FF" stroke-width="3" stroke-linecap="round" stroke-linejoin="round"/>
<path d="M60.7945 3.56875L72.6712 38.819C73.0697 40.0044 74.0002 40.9332 75.1857 41.3335L110.436 53.2102C114.067 54.4345 114.067 59.5699 110.436 60.7942L75.1857 72.6709C74.0002 73.0695 73.0714 73.9999 72.6712 75.1854L60.7945 110.436C59.5701 114.066 54.4348 114.066 53.2104 110.436L41.3337 75.1854C40.9352 73.9999 40.0047 73.0711 38.8192 72.6709L3.57071 60.7925C-0.0600274 59.5682 -0.0600274 54.4328 3.57071 53.2085L38.8209 41.3318C40.0064 40.9332 40.9352 40.0028 41.3354 38.8173L53.2104 3.56875C54.4348 -0.0619806 59.5701 -0.0619806 60.7945 3.56875Z" fill="#0057FF" stroke="#0057FF" stroke-width="1.68871" stroke-linecap="round" stroke-linejoin="round"/>
<path d="M93.5875 51.1026C90.5546 46.2543 81.1906 44.2211 81.1906 44.2211L81.2278 44.4271C74.5304 29.1223 61.6961 18.2807 57.2818 18.2453C51.2413 18.1963 38.9356 29.7674 32.581 44.7429C29.6697 45.621 24.2945 47.6458 22.1329 51.1009C19.9866 54.5307 25.2993 59.6019 28.5906 62.2785C28.496 67.2771 29.3741 72.3094 31.5745 77.1459C40.9317 97.6992 48.8349 83.0074 48.8349 83.0074C56.8377 85.9559 65.7136 83.0074 65.7136 83.0074C69.5858 88.8825 76.0688 90.8785 80.6908 82.1074C83.9753 75.8726 85.3584 69.6278 85.404 63.6126C87.8476 61.8158 96.1847 55.2534 93.5875 51.1009V51.1026Z" fill="#FFD400" stroke="white" stroke-width="10.1323" stroke-linecap="round" stroke-linejoin="round"/>
<path d="M31.5517 64.0846C31.5517 64.0846 19.6817 55.9518 22.7147 51.1051C25.7476 46.2585 35.1115 44.2236 35.1115 44.2236L31.55 64.0846H31.5517Z" fill="#FFD400" stroke="#0057FF" stroke-width="1.68871" stroke-linecap="round" stroke-linejoin="round"/>
<path d="M85.3332 64.0846C85.3332 64.0846 97.2032 55.9518 94.1703 51.1051C91.1374 46.2568 81.7734 44.2236 81.7734 44.2236L85.3349 64.0846H85.3332Z" fill="#FFD400" stroke="#0057FF" stroke-width="1.68871" stroke-linecap="round" stroke-linejoin="round"/>
<path d="M57.8642 18.2472C65.4584 18.3097 97.9948 50.3716 81.2732 82.1093C76.6512 90.8805 70.1682 88.8827 66.296 83.0094C66.296 83.0094 57.4201 85.9579 49.4173 83.0094C49.4173 83.0094 41.5141 97.7012 32.1569 77.1479C20.0877 50.6368 47.7539 18.1645 57.8642 18.2472Z" fill="#FFD400" stroke="#0057FF" stroke-width="1.68871" stroke-linecap="round" stroke-linejoin="round"/>
<path d="M37.1992 60.0781C37.1992 60.0781 41.6895 65.2946 47.1322 62.1451Z" fill="#FFD400"/>
<path d="M37.1992 60.0781C37.1992 60.0781 41.6895 65.2946 47.1322 62.1451" stroke="#0057FF" stroke-width="1.68871" stroke-linecap="round" stroke-linejoin="round"/>
<path d="M77.2299 60.0781C77.2299 60.0781 72.7396 65.2946 67.2969 62.1451Z" fill="#FFD400"/>
<path d="M77.2299 60.0781C77.2299 60.0781 72.7396 65.2946 67.2969 62.1451" stroke="#0057FF" stroke-width="1.68871" stroke-linecap="round" stroke-linejoin="round"/>
<path d="M56.996 69.7338C58.0573 69.7338 58.9177 69.3044 58.9177 68.7746C58.9177 68.2449 58.0573 67.8154 56.996 67.8154C55.9346 67.8154 55.0742 68.2449 55.0742 68.7746C55.0742 69.3044 55.9346 69.7338 56.996 69.7338Z" fill="#0057FF"/>
</g>
<defs>
<clipPath id="clip0_636_1401">
<rect width="114" height="114" fill="white"/>
</clipPath>
</defs>
</svg>
