<svg width="106" height="102" viewBox="0 0 106 102" fill="none" xmlns="http://www.w3.org/2000/svg">
<path d="M42.0987 5.52851C47.7026 -1.42586 58.2974 -1.42585 63.9013 5.52852L74.6934 18.9216C76.2497 20.853 78.2912 22.3362 80.609 23.2195L96.6815 29.3448C105.027 32.5253 108.301 42.6016 103.419 50.0802L94.0162 64.4828C92.6603 66.5598 91.8805 68.9597 91.7567 71.437L90.8979 88.6157C90.452 97.5357 81.8806 103.763 73.2593 101.431L56.6561 96.9391C54.2617 96.2913 51.7383 96.2913 49.3439 96.9391L32.7407 101.431C24.1194 103.763 15.548 97.5357 15.1021 88.6157L14.2433 71.437C14.1195 68.9597 13.3397 66.5597 11.9838 64.4828L2.58115 50.0802C-2.30118 42.6016 0.972824 32.5253 9.3185 29.3448L25.391 23.2195C27.7088 22.3362 29.7503 20.853 31.3066 18.9216L42.0987 5.52851Z" fill="#FFD400"/>
</svg>
