<svg width="75" height="72" viewBox="0 0 75 72" fill="none" xmlns="http://www.w3.org/2000/svg">
<path d="M72.9508 33.8575C69.9178 29.0092 60.5539 26.9759 60.5539 26.9759L60.5911 27.182C53.8936 11.8772 41.0594 1.03562 36.6451 1.00015C30.6046 0.951182 18.2989 12.5223 11.9443 27.4978C9.03296 28.3759 3.65778 30.4007 1.49623 33.8558C-0.650127 37.2855 4.66256 42.3568 7.95387 45.0334C7.8593 50.032 8.73743 55.0643 10.9378 59.9008C20.295 80.4541 28.1982 65.7623 28.1982 65.7623C36.201 68.7108 45.0769 65.7623 45.0769 65.7623C48.9491 71.6374 55.4321 73.6334 60.0541 64.8622C63.3386 58.6275 64.7217 52.3826 64.7673 46.3674C67.2108 44.5707 75.548 38.0083 72.9508 33.8558V33.8575Z" fill="#FFD400"/>
<path d="M10.915 46.8395C10.915 46.8395 -0.954987 38.7066 2.07794 33.86C5.11087 29.0134 14.4748 26.9785 14.4748 26.9785L10.9133 46.8395H10.915Z" fill="#FFD400" stroke="#0057FF" stroke-width="1.68871" stroke-linecap="round" stroke-linejoin="round"/>
<path d="M64.6965 46.8395C64.6965 46.8395 76.5665 38.7066 73.5336 33.86C70.5006 29.0117 61.1367 26.9785 61.1367 26.9785L64.6982 46.8395H64.6965Z" fill="#FFD400" stroke="#0057FF" stroke-width="1.68871" stroke-linecap="round" stroke-linejoin="round"/>
<path d="M37.2275 1.00211C44.8217 1.06459 77.3581 33.1265 60.6365 64.8642C56.0145 73.6354 49.5315 71.6376 45.6593 65.7643C45.6593 65.7643 36.7834 68.7128 28.7806 65.7643C28.7806 65.7643 20.8774 80.4561 11.5202 59.9028C-0.549014 33.3916 27.1172 0.919364 37.2275 1.00211Z" fill="#FFD400" stroke="#0057FF" stroke-width="1.68871" stroke-linecap="round" stroke-linejoin="round"/>
<path d="M16.5625 42.833C16.5625 42.833 21.0528 48.0494 26.4955 44.9L16.5625 42.833Z" fill="#FFD400"/>
<path d="M16.5625 42.833C16.5625 42.833 21.0528 48.0494 26.4955 44.9" stroke="#0057FF" stroke-width="1.68871" stroke-linecap="round" stroke-linejoin="round"/>
<path d="M56.5932 42.833C56.5932 42.833 52.1029 48.0494 46.6602 44.9L56.5932 42.833Z" fill="#FFD400"/>
<path d="M56.5932 42.833C56.5932 42.833 52.1029 48.0494 46.6602 44.9" stroke="#0057FF" stroke-width="1.68871" stroke-linecap="round" stroke-linejoin="round"/>
<path d="M36.3593 52.4887C37.4206 52.4887 38.281 52.0593 38.281 51.5295C38.281 50.9998 37.4206 50.5703 36.3593 50.5703C35.2979 50.5703 34.4375 50.9998 34.4375 51.5295C34.4375 52.0593 35.2979 52.4887 36.3593 52.4887Z" fill="#0057FF"/>
</svg>
